<svg xmlns="http://www.w3.org/2000/svg" width="179.798" height="29.263" viewBox="0 0 179.798 29.263"><path d="M15.317,3.85H32.151a1.111,1.111,0,0,1-.221.615c-.57.977-1.083,1.994-1.643,2.972-.792,1.4-1.533,2.832-2.338,4.23-.51,1.006-1.086,1.98-1.63,2.969H16.507c-.171,0-.34.009-.511.019a9.022,9.022,0,0,1-.57,1.058c-.249.4-.452.836-.7,1.241-.261.544-.621,1.031-.883,1.574-.541.919-1.047,1.852-1.577,2.781q-.829,1.425-1.621,2.889a12.251,12.251,0,0,0-.617,1.07c-1.107,1.926-2.178,3.869-3.287,5.794a2.325,2.325,0,0,1-.368.57c-1.895-.013-3.789,0-5.684,0a2.908,2.908,0,0,0-.691.1,3.056,3.056,0,0,1,.587-1.385c.285-.591.665-1.14.952-1.732,2.271-4.063,4.517-8.14,6.781-12.206.513-.883.953-1.785,1.469-2.651.644-1.14,1.244-2.305,1.915-3.432.214-.472.5-.9.737-1.363.835-1.486,1.654-2.98,2.486-4.466a2.6,2.6,0,0,1,.392-.643Z" transform="translate(0 -3.301)" fill="#ced0d4"></path><g transform="translate(12.4)"><path d="M109.464,10.389c1.121-1.959,2.2-3.939,3.341-5.889h6.08a1.256,1.256,0,0,1,.262.041c-.2.306-.372.631-.55.95q-2.2,3.948-4.386,7.9c-.613,1.073-1.182,2.17-1.8,3.237l-.061.021-.011.134q-4.288,7.693-8.548,15.4-8.372.009-16.746,0c.318-.664.694-1.3,1.047-1.943,1.59-2.923,3.221-5.821,4.788-8.744q5.144-.009,10.289,0c2.118-3.69,4.191-7.408,6.294-11.1Z" transform="translate(-87.04 -3.859)" fill="#ced0d4"></path><path d="M684.91,3.97V32.063h4.868V12.308l8.88,13.011L707.466,12V32.063h5.01V3.97h-5.389l-8.394,12.968L690.205,3.97Z" transform="translate(-599.736 -3.404)" fill="#ced0d4"></path><path d="M525.08,54.83h3.181V75.914H525.08Z" transform="translate(-462.676 -47.019)" fill="#ced0d4"></path><path d="M523.16,0h3.728V3.537H523.16Z" transform="translate(-461.03)" fill="#ced0d4"></path><path d="M573.212,12.42h3.324v6.042h6.553v2.945h-6.553V33.932a2.97,2.97,0,0,0,.326,1.389c.563,1.068,2.091,2.336,6.227.855v2.73s-3.775,2.137-7.194.191a4.868,4.868,0,0,1-2.412-3.154,7.1,7.1,0,0,1-.271-2V21.359l-2.8.047V18.462h2.825Z" transform="translate(-501.548 -10.651)" fill="#ced0d4"></path><path d="M914.41,3.97V32.253h21.131V27.694H919.563v-7.5h14.08V15.7h-14.1V8.557h15.838V3.97Z" transform="translate(-796.541 -3.404)" fill="#ced0d4"></path><path d="M1073.444,3.97h6.019l6.909,9.93,6.855-9.93h6.019l-9.83,13.793,10.442,14.466h-6.339L1086.4,21.664l-7.468,10.589h-6.019L1083.2,17.889Z" transform="translate(-932.461 -3.404)" fill="#ced0d4"></path><path d="M353.981,18.007a7.019,7.019,0,0,0,4.369-6.814,6.988,6.988,0,0,0-5.515-6.365,10.542,10.542,0,0,0-2.792-.359H336.91l.036,28.093h14.139s8.274-.178,8.857-7.55C359.942,25.012,360.534,19.859,353.981,18.007ZM340.3,7.369h8.382c6.576-.023,6.387,4.607,6.387,4.607.1,5.282-5.936,5.176-5.936,5.176H340.3Zm10.257,22.224H340.3V19.812h9.807c6.576-.024,6.387,4.606,6.387,4.606C356.6,29.7,350.562,29.593,350.562,29.593Z" transform="translate(-301.313 -3.832)" fill="#ced0d4"></path></g></svg>