<svg xmlns="http://www.w3.org/2000/svg" width="138.689" height="40.03" viewBox="0 0 138.689 40.03"><g transform="translate(0 0)"><path d="M240.3,267.659a.386.386,0,0,1,.359-.36h9.921c5.56,0,8.1,2.732,8.1,6.83a6.021,6.021,0,0,1-2.924,5.464v.1a5.927,5.927,0,0,1,3.379,5.727c0,5.008-3.379,7.381-8.819,7.381h-9.657a.386.386,0,0,1-.359-.359Zm9.633,10.017c2.085,0,3.379-1.1,3.379-3,0-1.917-1.27-2.924-3.379-2.924h-3.906c-.192,0-.192.1-.192.192v5.464c0,.192.1.192.192.192h3.906Zm-3.906,10.544h4.194c2.277,0,3.451-1.174,3.451-3.187,0-1.917-1.174-3.187-3.451-3.187h-4.194c-.192,0-.192.1-.192.192v5.919c-.1.192,0,.264.192.264" transform="translate(-192.578 -259.218)" fill="#ced0d4"></path><path d="M329.1,267.259a.386.386,0,0,1,.359-.359h4.721a.386.386,0,0,1,.359.359v24.755a.386.386,0,0,1-.359.359H329.46a.386.386,0,0,1-.359-.359Z" transform="translate(-260.098 -258.914)" fill="#ced0d4"></path><path d="M369.081,292.6a.386.386,0,0,1-.359-.359V272.3c0-.192-.1-.192-.192-.192h-6.47a.386.386,0,0,1-.359-.359v-4.194a.386.386,0,0,1,.359-.359H380.9a.386.386,0,0,1,.359.359v4.194a.386.386,0,0,1-.359.359h-6.47c-.192,0-.192.1-.192.192v19.938a.386.386,0,0,1-.359.359Z" transform="translate(-284.885 -259.142)" fill="#ced0d4"></path><path d="M445.2,288.39c-.192-.192-.192-.359-.1-.647l2.828-3.283a.336.336,0,0,1,.551,0,10.879,10.879,0,0,0,6.638,2.636c2.636,0,4.194-1.27,4.194-3,0-1.462-.911-2.468-3.906-2.828l-1.366-.192c-5.176-.719-8-3.187-8-7.644,0-4.721,3.547-7.836,9.01-7.836a14.6,14.6,0,0,1,8.651,2.636c.192.192.264.264.1.551l-2.277,3.379a.42.42,0,0,1-.551.1,10.413,10.413,0,0,0-5.919-1.917c-2.277,0-3.379,1.174-3.379,2.732,0,1.462,1.1,2.372,4,2.828l1.366.192c5.272.719,8,3.091,8,7.74s-3.379,8-10.017,8a15,15,0,0,1-9.825-3.451" transform="translate(-348.252 -257.925)" fill="#ced0d4"></path><path d="M537.219,285.734c-.551-1.725-.719-3.187-.719-6.926s.192-5.176.719-6.926c1.27-4.1,4.817-6.183,9.274-6.183s8,2.085,9.274,6.183c.551,1.725.719,3.187.719,6.926s-.192,5.176-.719,6.926c-1.27,4.1-4.817,6.183-9.274,6.183s-7.908-2.085-9.274-6.183m13.276-1.462a41.707,41.707,0,0,0,0-10.927,4.246,4.246,0,0,0-8,0,41.693,41.693,0,0,0,0,10.927,4.246,4.246,0,0,0,8,0" transform="translate(-417.797 -258.001)" fill="#ced0d4"></path><path d="M96.045,228.2a16.934,16.934,0,0,0-4.493.551.378.378,0,0,0-.388.225,1.315,1.315,0,0,0-.163.388v11.56a.559.559,0,0,0,.082.306c.082.082.225.082.388-.082a7.833,7.833,0,0,1,4.575-1.47,7.984,7.984,0,0,1,7.986,7.986v17.38s0,.163.082.225c.082.082.163.082.306,0A19.438,19.438,0,0,0,96.045,228.2" transform="translate(-76.479 -227.261)" fill="#ced0d4"></path><path d="M44.429,250.437c-.082-.082-.163-.082-.306,0a8.109,8.109,0,0,1-4.657,1.552A7.984,7.984,0,0,1,31.48,244V224.151a1.081,1.081,0,0,0-.163-.47.815.815,0,0,0-.388-.082h-10.4a.671.671,0,0,0-.47.163.633.633,0,0,0-.163.47v19.852A19.559,19.559,0,0,0,39.445,263.63a18.631,18.631,0,0,0,4.657-.551,1.483,1.483,0,0,0,.306-.225.808.808,0,0,0,.163-.47V250.743c-.061,0-.061-.225-.143-.306" transform="translate(-19.9 -223.6)" fill="#ced0d4"></path></g></svg>