<svg xmlns="http://www.w3.org/2000/svg" width="204.775" height="40.03" viewBox="0 0 204.775 40.03"><path d="M73.1,318.244a1.944,1.944,0,1,0,1.944-1.944,1.965,1.965,0,0,0-1.944,1.944m16.3-1.91a1.944,1.944,0,1,0,1.944,1.944,1.922,1.922,0,0,0-1.944-1.944m0,14.6a1.944,1.944,0,1,0,1.944,1.944,1.921,1.921,0,0,0-1.944-1.944" transform="translate(-55.095 -298.227)" fill="#ced0d4"></path><path d="M58.732,265.478a5.137,5.137,0,0,0-7.468-.614l-.239.239-.477.375a5.01,5.01,0,0,1-6.65-.375v-.136a5.327,5.327,0,0,0-2.285-1.33c-.136,0-.375-.136-.477-.136H39.192a.435.435,0,0,0-.375.136h-.239c-.136,0-.239.136-.375.136a.134.134,0,0,0-.136.136c-.136,0-.239.136-.375.136a.134.134,0,0,0-.136.136c-.136.136-.239.136-.375.239a.134.134,0,0,0-.136.136c-.136.136-.239.136-.375.239l-.136.136-.239.239-.477.375a4.825,4.825,0,0,1-6.513-.375.134.134,0,0,1-.136-.136l-.239-.239A4.708,4.708,0,0,0,26.4,263.6H24.222c0,.136-.136.136-.239.239h-.034a4.977,4.977,0,0,0-1.705.955l-.136.136-.375.375a5.537,5.537,0,0,0-.955,1.569c0,.136-.136.239-.136.375s-.136.239-.136.477a5.263,5.263,0,0,0,.136,2.523c0,.136.136.239.136.375v.136c0,.136.136.239.136.375.136.136.136.239.239.477a5.567,5.567,0,0,1,.614.477l.239.239.239.239a4.923,4.923,0,0,1-.136,6.888,3.962,3.962,0,0,0-.716.852c-.136.136-.136.239-.239.477v.136c-.136.136-.136.239-.239.375v.136c0,.136-.136.239-.136.375v.136a.435.435,0,0,1-.136.375v1.807a.435.435,0,0,0,.136.375v.136a5.576,5.576,0,0,0,1.432,2.421,4.919,4.919,0,0,1,0,6.991l-.136.136-.239.239v.136c-.136.136-.239.239-.239.375a.134.134,0,0,1-.136.136c-.136.136-.136.239-.239.375l-.136.136c0,.136-.136.136-.136.239s-.136.136-.136.239c0,.136,0,.136-.136.239a3.776,3.776,0,0,0-.375,1.569v.955c.136.375.136.716.375.955a.349.349,0,0,0,.136.239.134.134,0,0,0,.136.136c0,.136.136.239.136.375a.134.134,0,0,0,.136.136,1.449,1.449,0,0,0,.375.477,1131266893417.549,1131266893417.549,0,0,1,.273.273.134.134,0,0,0,.136.136l.136.136c.136.136.239.136.239.239l.136.136a.134.134,0,0,1,.136.136c.136.136.239.239.375.239a.134.134,0,0,1,.136.136c.136.136.239.136.375.239h.068c.136.136.239.136.477.136.136,0,.375.136.477.136H24.7a.435.435,0,0,1,.375.136h1.091c.375,0,.614-.136.955-.136h.136c.136,0,.239-.136.375-.136H27.7c.136,0,.239-.136.375-.136h.136c.239-.136.614-.375.853-.477l.375-.375.136-.136a4.748,4.748,0,0,1,6.991,0,5.151,5.151,0,0,0,7.843-.375,5.319,5.319,0,0,0,0-6.411,5.137,5.137,0,0,0-7.468-.614l-.239.239-.477.375a5.01,5.01,0,0,1-6.65-.375l-.239-.239-.375-.477a5.01,5.01,0,0,1,.375-6.65,4.714,4.714,0,0,0,1.569-3.615v-.375a4.4,4.4,0,0,0-1.432-3.274c0-.136-.136-.136-.136-.239l-.375-.477a5.01,5.01,0,0,1,.375-6.65l.136-.136.136-.136a4.748,4.748,0,0,1,6.991,0l.136.136.136.136.239.239c.136,0,.136.136.239.136s.136.136.239.136.136.136.239.136.136.136.239.136.136.136.239.136.136.136.239.136.136,0,.239.136c.136,0,.136,0,.239.136h2.046a.436.436,0,0,0,.375-.136h.239c.136,0,.239-.136.375-.136h.136c.136,0,.239-.136.477-.239a6.284,6.284,0,0,0,1.33-.955l.136-.136a4.748,4.748,0,0,1,6.991,0,4.97,4.97,0,0,0,7.741-.239,5.951,5.951,0,0,0-.136-6.684" transform="translate(-20.3 -263.432)" fill="#ced0d4"></path><path d="M185.363,280.316a6.817,6.817,0,0,0-2.182-1.569,5.574,5.574,0,0,0-2.66-.614,6,6,0,0,0-2.66.614,4.688,4.688,0,0,0-1.807,1.569,6.251,6.251,0,0,0-1.091,2.182,9.428,9.428,0,0,0-.375,2.523,6.623,6.623,0,0,0,.477,2.523,5.786,5.786,0,0,0,1.194,2.046,5.164,5.164,0,0,0,1.944,1.432,5.389,5.389,0,0,0,2.523.477,5.574,5.574,0,0,0,2.66-.614,6.71,6.71,0,0,0,2.046-1.569l2.523,2.66a8.175,8.175,0,0,1-3.274,2.285,10.656,10.656,0,0,1-3.99.716,11.336,11.336,0,0,1-4.092-.716,9.091,9.091,0,0,1-5.183-5.183,12.05,12.05,0,0,1,0-8.184,11.726,11.726,0,0,1,2.046-3.274,9.435,9.435,0,0,1,3.137-2.046,11.336,11.336,0,0,1,4.092-.716,10.913,10.913,0,0,1,3.99.716,9.259,9.259,0,0,1,3.376,2.285l-2.694,2.455m8.184,4.467a6.5,6.5,0,0,0,.477,2.66,6.422,6.422,0,0,0,1.194,2.182,4.075,4.075,0,0,0,1.944,1.33,5.982,5.982,0,0,0,2.66.477,6.948,6.948,0,0,0,2.66-.477,9.271,9.271,0,0,0,1.944-1.33,6.422,6.422,0,0,0,1.194-2.182,9.666,9.666,0,0,0,.477-2.66,6.5,6.5,0,0,0-.477-2.66,6.422,6.422,0,0,0-1.194-2.182,4.075,4.075,0,0,0-1.944-1.33,5.982,5.982,0,0,0-2.66-.477,6.948,6.948,0,0,0-2.66.477,9.275,9.275,0,0,0-1.944,1.33,6.422,6.422,0,0,0-1.194,2.182A9.665,9.665,0,0,0,193.548,284.783Zm-3.853,0a10.913,10.913,0,0,1,.716-3.99,9.669,9.669,0,0,1,2.182-3.274,8.637,8.637,0,0,1,3.274-2.182,10.68,10.68,0,0,1,3.99-.853,8.653,8.653,0,0,1,3.99.853,9.668,9.668,0,0,1,3.274,2.182,11.941,11.941,0,0,1,2.182,3.274,10.657,10.657,0,0,1,.716,3.99,10.913,10.913,0,0,1-.716,3.99,9.668,9.668,0,0,1-2.182,3.274,10.678,10.678,0,0,1-7.263,3.035,8.748,8.748,0,0,1-3.99-.852,9.669,9.669,0,0,1-3.274-2.182,10.578,10.578,0,0,1-2.182-3.274A14.792,14.792,0,0,1,189.694,284.783Zm24.041,9.787h3.615v-19.3h-3.615Zm-.853-26.326a3.048,3.048,0,0,1,.716-1.944,2.594,2.594,0,0,1,1.807-.853,2.149,2.149,0,0,1,1.807.853,2.737,2.737,0,0,1,.716,1.944,2.981,2.981,0,0,1-.716,1.944,2.594,2.594,0,0,1-1.807.853,2.149,2.149,0,0,1-1.807-.853A2.854,2.854,0,0,1,212.883,268.245Zm9.514,6.991h3.649v3h.136a4.716,4.716,0,0,1,2.421-2.523,8.029,8.029,0,0,1,3.99-.955,6.948,6.948,0,0,1,2.66.477,4.982,4.982,0,0,1,2.182,1.33A8.414,8.414,0,0,1,239,278.85a9.041,9.041,0,0,1,.614,3.376v12.447h-3.683V283.215a6.405,6.405,0,0,0-.375-2.285,5.335,5.335,0,0,0-.955-1.569,3.045,3.045,0,0,0-1.432-.852,6.428,6.428,0,0,0-1.705-.239,5.74,5.74,0,0,0-2.046.375,4.328,4.328,0,0,0-1.705,1.194,4.68,4.68,0,0,0-1.091,2.046,10.67,10.67,0,0,0-.375,2.9v10.026h-3.615v-19.54m30.316,16.266a6.05,6.05,0,0,0,4.706-1.91,6.422,6.422,0,0,0,1.194-2.182,9.731,9.731,0,0,0,.477-2.762,7.355,7.355,0,0,0-.477-2.762,6.422,6.422,0,0,0-1.194-2.182,5.837,5.837,0,0,0-2.046-1.432,6.358,6.358,0,0,0-2.66-.477,6.05,6.05,0,0,0-4.706,1.91,6.423,6.423,0,0,0-1.194,2.182,9.731,9.731,0,0,0-.477,2.762,7.355,7.355,0,0,0,.477,2.762,6.422,6.422,0,0,0,1.194,2.182,4.813,4.813,0,0,0,2.046,1.432A8.811,8.811,0,0,0,252.951,291.535Zm10.026,2.9h-3.615v-2.762h-.136a7.2,7.2,0,0,1-2.9,2.421,8.375,8.375,0,0,1-3.853.853,11.337,11.337,0,0,1-4.092-.716,8.037,8.037,0,0,1-3.137-2.182,8.892,8.892,0,0,1-1.944-3.274,10.657,10.657,0,0,1-.716-3.99,11.742,11.742,0,0,1,.716-4.092,11.4,11.4,0,0,1,1.944-3.274,8.41,8.41,0,0,1,3.137-2.182,10.827,10.827,0,0,1,4.092-.716,8.375,8.375,0,0,1,3.853.853,6.666,6.666,0,0,1,2.762,2.421h.136V263.3h3.615v31.134Zm18.448-11.219a6.977,6.977,0,0,0-.375-2.285,4.591,4.591,0,0,0-1.091-1.807,7.635,7.635,0,0,0-1.705-1.194,7.1,7.1,0,0,0-2.421-.477,5.689,5.689,0,0,0-2.421.477,7.3,7.3,0,0,0-1.944,1.33,4.787,4.787,0,0,0-1.194,1.807,6.455,6.455,0,0,0-.477,1.944h11.594Zm-11.56,3a4.766,4.766,0,0,0,.614,2.285,5.8,5.8,0,0,0,1.432,1.807,6.975,6.975,0,0,0,2.046,1.091,8.527,8.527,0,0,0,2.421.375,5,5,0,0,0,3-.853,8.523,8.523,0,0,0,2.285-2.046l2.762,2.182a10.243,10.243,0,0,1-8.559,3.99,10.825,10.825,0,0,1-4.092-.716,8.035,8.035,0,0,1-3.137-2.182,8.136,8.136,0,0,1-1.944-3.274,10.656,10.656,0,0,1-.716-3.99,10.913,10.913,0,0,1,.716-3.99,11.726,11.726,0,0,1,2.046-3.274,10.343,10.343,0,0,1,3.137-2.182,10.657,10.657,0,0,1,3.99-.716,9.357,9.357,0,0,1,4.331.853,8.157,8.157,0,0,1,2.9,2.285,10.677,10.677,0,0,1,1.705,3.274,12.311,12.311,0,0,1,.477,3.751v1.33Zm29.668-6.138a8.511,8.511,0,0,0-1.569-1.33,4.47,4.47,0,0,0-2.285-.614,4.766,4.766,0,0,0-2.285.614,1.734,1.734,0,0,0-.955,1.569,1.519,1.519,0,0,0,.614,1.33,4.922,4.922,0,0,0,1.33.852,6.886,6.886,0,0,0,1.569.477,7.675,7.675,0,0,0,1.432.239,13.64,13.64,0,0,1,2.182.716,4.591,4.591,0,0,1,1.807,1.091,6.81,6.81,0,0,1,1.194,1.569,5.993,5.993,0,0,1,.477,2.285,4.964,4.964,0,0,1-.716,2.762,7.534,7.534,0,0,1-1.807,1.944A7.358,7.358,0,0,1,298,294.673a11.89,11.89,0,0,1-2.762.375,11.7,11.7,0,0,1-4.229-.716,7.616,7.616,0,0,1-3.274-2.66l2.762-2.285a10.879,10.879,0,0,0,1.944,1.569,4.691,4.691,0,0,0,2.66.716,5.106,5.106,0,0,0,1.432-.136,3.8,3.8,0,0,0,1.193-.477,4.7,4.7,0,0,0,.853-.716,2,2,0,0,0,.375-1.091,1.938,1.938,0,0,0-.477-1.33,4.239,4.239,0,0,0-1.194-.853,5.892,5.892,0,0,0-1.432-.477l-1.432-.375c-.716-.239-1.569-.375-2.182-.614a6.909,6.909,0,0,1-1.807-.955,6.1,6.1,0,0,1-1.33-1.569,4.433,4.433,0,0,1-.477-2.285,5.994,5.994,0,0,1,.614-2.66,4.791,4.791,0,0,1,1.705-1.807,7.844,7.844,0,0,1,2.285-1.091,10.217,10.217,0,0,1,2.66-.375,10.051,10.051,0,0,1,3.751.716,6.263,6.263,0,0,1,2.9,2.421l-3,2.08m7.025-16.3h3.615v19.54l8.218-8.218h4.945l-8.8,8.7,9.651,10.367H319l-8.8-9.889v9.889h-3.615V263.777" transform="translate(-119.412 -263.3)" fill="#ced0d4"></path></svg>